#!OML:ASF X:\für Bonn\!DataBase\2005_08_10_Bjorn_Final\c3d\bjorn.ASF
:FULLY-SPECIFIED
:DEGREES
202
root -3.36221 18.7981 21.7038 -294.395 -260.527 -299.097
lowerback -3.42904 -4.72759 4.57984
upperback 7.4346 -6.74888 2.4122
thorax 9.57881 -2.97408 -0.7326
lowerneck -1.482 8.47225 2.74008
upperneck 1.6113 11.4626 -7.71693
head 1.42534 5.67466 -2.67821
rclavicle 5.1684e-014 -1.94809e-014
rhumerus -61.8817 -1.89213 -87.0022
rradius 77.8031
rwrist 2.18243
rhand -29.3856 31.6453
rfingers 7.12502
rthumb -2.72406 1.68292
lclavicle 5.1684e-014 -1.94809e-014
lhumerus -28.8766 -28.1635 93.6654
lradius 95.8325
lwrist -5.58671
lhand -44.2576 -28.5012
lfingers 7.12502
lthumb -17.0692 0.768953
rfemur -30.66 -3.96673 13.1926
rtibia 31.2022
rfoot 2.44402 15.6053
rtoes -35.0931
lfemur 8.89238 -8.09041 -19.8211
ltibia 49.3472
lfoot 5.27662 11.8818
ltoes -6.42519
203
root -3.07188 18.7202 21.7515 -297.361 -260.059 -301.51
lowerback -2.88327 -4.68733 4.82382
upperback 7.53909 -6.67042 2.52405
thorax 9.36147 -2.92314 -0.693715
lowerneck -1.73935 8.44625 2.57051
upperneck 1.68902 11.4352 -7.67831
head 1.4797 5.65399 -2.62401
rclavicle 4.11484e-014 -1.07344e-014
rhumerus -61.3716 -1.87644 -87.0552
rradius 78.1098
rwrist 1.76531
rhand -29.4522 31.3854
rfingers 7.12502
rthumb -2.78841 1.42385
lclavicle 4.11484e-014 -1.07344e-014
lhumerus -29.4948 -28.0544 94.4526
lradius 95.7315
lwrist -5.84889
lhand -44.1973 -29.0724
lfingers 7.12502
lthumb -17.0111 0.202723
rfemur -29.6363 -4.11499 13.5065
rtibia 32.0903
rfoot 1.71846 16.175
rtoes -33.9417
lfemur 8.23343 -8.07338 -19.4754
ltibia 52.3307
lfoot 4.19369 11.7009
ltoes -6.69755
204
root -2.78094 18.6444 21.7968 -299.435 -259.477 -303.085
lowerback -2.40236 -4.58669 5.23296
upperback 7.6316 -6.52465 2.67307
thorax 9.1607 -2.82718 -0.705509
lowerneck -1.89109 8.40023 2.30521
upperneck 1.68795 11.3743 -7.514
head 1.47293 5.62095 -2.52044
rclavicle -3.97569e-015 1.51076e-014
rhumerus -60.7948 -1.9761 -87.0834
rradius 78.3902
rwrist 1.48469
rhand -29.2935 31.3152
rfingers 7.12502
rthumb -2.63518 1.35169
lclavicle -3.97569e-015 1.51076e-014
lhumerus -30.1988 -27.9757 95.329
lradius 95.4291
lwrist -6.00151
lhand -44.4157 -30.0415
lfingers 7.12502
lthumb -17.2214 -0.784632
rfemur -28.6378 -4.23041 13.993
rtibia 33.0789
rfoot 0.53421 16.7631
rtoes -33.1747
lfemur 7.35519 -7.94672 -18.9257
ltibia 55.3356
lfoot 3.27924 10.8521
ltoes -6.62529
205
root -2.49392 18.5554 21.8421 -301.324 -258.821 -304.52
lowerback -1.99123 -4.45378 5.7229
upperback 7.72454 -6.34139 2.82696
thorax 8.9983 -2.70511 -0.760676
lowerneck -1.97342 8.31566 2.07847
upperneck 1.62442 11.2578 -7.35674
head 1.43446 5.56319 -2.43249
rclavicle -3.00165e-014 -2.8625e-014
rhumerus -60.1149 -2.01843 -87.1823
rradius 78.7029
rwrist 1.09808
rhand -28.9332 30.9578
rfingers 7.12502
rthumb -2.28718 0.990353
lclavicle -3.00165e-014 -2.8625e-014
lhumerus -30.9889 -27.889 96.2666
lradius 95.0037
lwrist -6.08831
lhand -44.7162 -31.0911
lfingers 7.12502
lthumb -17.5106 -1.85971
rfemur -27.68 -4.38456 14.5472
rtibia 34.2001
rfoot -1.40518 17.3762
rtoes -33.2006
lfemur 6.2914 -7.80758 -18.2608
ltibia 58.3586
lfoot 2.52038 9.46097
ltoes -7.13135
206
root -2.20969 18.4583 21.8841 -303.308 -258.19 -306.03
lowerback -1.58319 -4.29675 6.18087
upperback 7.85765 -6.11746 2.94782
thorax 8.88646 -2.56085 -0.833641
lowerneck -2.09887 8.19493 1.98316
upperneck 1.53478 11.0922 -7.30255
head 1.40897 5.48054 -2.40057
rclavicle -4.26393e-014 3.73715e-014
rhumerus -59.3412 -1.95835 -87.4143
rradius 79.1121
rwrist 0.630632
rhand -28.544 30.0569
rfingers 7.12502
rthumb -1.91128 0.085728
lclavicle -4.26393e-014 3.73715e-014
lhumerus -31.7201 -27.8246 97.2012
lradius 94.4972
lwrist -6.184
lhand -45.1118 -31.7803
lfingers 7.12502
lthumb -17.8912 -2.5833
rfemur -26.7462 -4.64202 15.0366
rtibia 35.4972
rfoot -3.90574 17.9583
rtoes -33.4156
lfemur 5.18518 -7.66333 -17.6534
ltibia 61.3259
lfoot 1.86456 7.772
ltoes -8.05126
207
root -1.92715 18.3528 21.9235 -305.022 -257.577 -307.285
lowerback -1.21982 -4.1137 6.66909
upperback 7.99859 -5.85895 3.03857
thorax 8.80911 -2.39432 -0.958086
lowerneck -2.19569 8.04764 1.99386
upperneck 1.40652 10.8884 -7.31962
head 1.37611 5.38023 -2.41303
rclavicle 2.44505e-014 -2.88238e-014
rhumerus -58.4418 -1.92905 -87.6819
rradius 79.3738
rwrist 0.35465
rhand -28.3299 29.0184
rfingers 7.12502
rthumb -1.70449 -0.954559
lclavicle 2.44505e-014 -2.88238e-014
lhumerus -32.3272 -27.7077 98.0899
lradius 93.7992
lwrist -6.34043
lhand -45.5174 -32.0633
lfingers 7.12502
lthumb -18.2815 -2.90236
rfemur -25.904 -4.90701 15.5046
rtibia 37.0051
rfoot -6.78825 18.4663
rtoes -33.2315
lfemur 4.03247 -7.48135 -17.0809
ltibia 64.2269
lfoot 1.09964 6.20838
ltoes -9.33669
208
root -1.64604 18.2389 21.9606 -306.334 -257.023 -308.141
lowerback -0.890202 -3.87081 7.17878
upperback 8.15145 -5.5197 3.09673
thorax 8.76957 -2.18307 -1.12802
lowerneck -2.24257 7.8519 2.24425
upperneck 1.21404 10.619 -7.59553
head 1.34289 5.2487 -2.55637
rclavicle -4.96962e-016 5.86415e-014
rhumerus -57.4885 -2.0624 -87.9529
rradius 79.57
rwrist 0.287234
rhand -28.2245 28.094
rfingers 7.12502
rthumb -1.60275 -1.87973
lclavicle -4.96962e-016 5.86415e-014
lhumerus -32.9239 -27.4816 98.9858
lradius 92.9535
lwrist -6.5534
lhand -45.8248 -32.0466
lfingers 7.12502
lthumb -18.5772 -2.91368
rfemur -25.1733 -5.16902 15.9456
rtibia 38.6908
rfoot -9.73734 18.9197
rtoes -32.9423
lfemur 2.8727 -7.27073 -16.5866
ltibia 67.0368
lfoot 0.0660982 5.1518
ltoes -9.79051
209
root -1.37094 18.1186 21.9963 -307.603 -256.502 -309.009
lowerback -0.577457 -3.61118 7.67779
upperback 8.29892 -5.15402 3.11295
thorax 8.73898 -1.95758 -1.33839
lowerneck -2.43081 7.62435 2.79976
upperneck 1.0283 10.307 -8.14198
head 1.3691 5.09217 -2.83918
rclavicle 1.98785e-014 -5.38706e-014
rhumerus -56.2679 -2.50792 -88.2134
rradius 79.6761
rwrist 0.287491
rhand -27.8381 27.0899
rfingers 7.12502
rthumb -1.22956 -2.88631
lclavicle 1.98785e-014 -5.38706e-014
lhumerus -33.4959 -27.1355 99.7789
lradius 92.0563
lwrist -6.76375
lhand -45.9921 -31.6423
lfingers 7.12502
lthumb -18.7381 -2.5248
rfemur -24.6198 -5.39936 16.3186
rtibia 40.4967
rfoot -12.4925 19.313
rtoes -32.8741
lfemur 1.57701 -7.05023 -16.1531
ltibia 69.7871
lfoot -1.06438 4.72223
ltoes -10.2694
210
root -1.10185 17.9943 22.029 -308.747 -256.028 -309.756
lowerback -0.222597 -3.37812 8.07843
upperback 8.44398 -4.81229 3.16435
thorax 8.69561 -1.75234 -1.45959
lowerneck -2.79466 7.43624 3.37992
upperneck 0.980688 10.0565 -8.78121
head 1.47977 4.95883 -3.15146
rclavicle 5.89397e-014 -3.08116e-014
rhumerus -54.751 -2.86901 -88.4154
rradius 79.6689
rwrist 0.202122
rhand -27.4585 26.2215
rfingers 7.12502
rthumb -0.862873 -3.75647
lclavicle 5.89397e-014 -3.08116e-014
lhumerus -34.1104 -26.486 100.595
lradius 91.1715
lwrist -6.95652
lhand -46.027 -30.9875
lfingers 7.12502
lthumb -18.7716 -1.87323
rfemur -24.1252 -5.69753 16.6369
rtibia 42.3257
rfoot -15.0901 19.8118
rtoes -32.8239
lfemur 0.204857 -6.70359 -15.7191
ltibia 72.4617
lfoot -2.28975 4.78722
ltoes -10.7411
